PathFileType	3	(X/Y/Z)	D:\minhoCalibration\240510\subject2_KPNP\preferred\preferred08.trc
DataRate	CameraRate	NumFrames	NumMarkers	Units	OrigDataRate	OrigDataStartFrame	OrigNumFrames
200.0	200.0	18	10	mm	200.0	488	229	
Frame#	Time	Left_Ankle_Outer1			Left_Ankle_Inner1			Left_Knee_Outer1			Left_Knee_Inner1			Left_Wrist1			Right_Wrist1			Right_Knee_Inner1			Right_Knee_Outer1			Right_Ankle_Inner1			Right_Ankle_Outer1			
		X1	Y1	Z1	X2	Y2	Z2	X3	Y3	Z3	X4	Y4	Z4	X5	Y5	Z5	X6	Y6	Z6	X7	Y7	Z7	X8	Y8	Z8	X9	Y9	Z9	X10	Y10	Z10	
488	2.43	-525.13702	116.90738	-731.00531	-522.52716	127.8732	-676.28857	-356.1991	533.01678	-787.19263	-352.23822	515.93073	-691.12103	-471.69022	938.80164	-856.625	-460.49371	1180.6473	-603.33942	-274.50629	1010.7212	-234.85637	-276.3501	1098.3705	-252.64639	-342.29257	987.44299	169.7524	-328.53973	1087.7413	176.35316
489	2.435	-524.26868	117.87585	-731.55078	-522.13672	128.38702	-676.94177	-353.20874	534.92407	-783.67047	-354.05136	517.20795	-687.28754	-470.33133	938.27405	-854.34235	-462.66727	1182.2219	-602.08191	-273.55576	1016.8717	-236.67699	-288.10843	1104.7101	-248.72308	-337.07239	979.47644	169.34695	-330.46057	1082.2645	178.89566
490	2.44	-523.35162	118.7037	-731.63452	-521.95245	129.01852	-676.82416	-350.58154	536.3891	-780.01923	-355.90945	518.44836	-683.69678	-469.06616	937.72833	-851.74188	-464.63409	1184.2249	-601.41931	-271.1698	1022.9324	-238.86592	-297.13943	1108.6875	-245.16997	-332.82065	974.27209	168.81396	-332.97858	1077.5239	181.15907
491	2.445	-523.00391	119.8614	-731.74707	-521.48273	129.30865	-677.33752	-347.9566	538.3595	-776.36426	-358.3161	519.76831	-680.1532	-467.298	937.69995	-849.3988	-466.38611	1186.5065	-601.30396	-270.01617	1027.6312	-240.99806	-302.94217	1110.8223	-242.44067	-328.26416	969.24799	168.42046	-334.86194	1073.3521	182.23741
492	2.45	-522.5777	120.85597	-731.68817	-521.44885	131.19286	-675.21625	-346.0697	539.60883	-773.36182	-360.37344	521.05585	-677.04529	-465.0177	937.86493	-847.69904	-468.17142	1189.0559	-601.65234	-269.86465	1031.1754	-240.49258	-308.2366	1111.5271	-239.94322	-324.65045	966.04523	169.65326	-336.11252	1069.4078	183.43066
493	2.455	-522.14813	121.9292	-732.03833	-520.98419	130.26967	-677.49152	-344.7056	540.8902	-770.78857	-362.19449	522.28052	-674.39832	-462.55344	938.0451	-846.18164	-469.7081	1191.4076	-602.16553	-269.99597	1032.2383	-238.06993	-313.5372	1111.3636	-237.13824	-321.87344	964.7605	172.48743	-337.02478	1067.3669	184.92197
494	2.46	-521.65601	122.65221	-732.17114	-520.49329	130.83823	-677.85065	-343.9169	541.99432	-768.74921	-363.61612	523.42444	-672.27441	-460.17404	938.1767	-845.13177	-471.09436	1193.0959	-602.38788	-269.63123	1032.2194	-235.1781	-317.07333	1110.5159	-234.67604	-318.27655	967.62799	172.9381	-339.14008	1066.4707	186.25002
495	2.465	-521.12091	123.311	-732.52161	-520.38751	132.92769	-675.8064	-343.56116	542.88867	-767.2644	-364.54227	524.43677	-670.78632	-457.62335	939.02551	-844.58746	-472.60391	1194.6487	-602.1015	-271.40549	1030.8694	-232.17915	-319.68826	1109.0636	-232.66629	-318.14786	966.41644	174.605	-341.4151	1065.1178	186.94963
496	2.47	-520.49445	123.58643	-732.87109	-519.88855	132.89436	-677.30603	-343.39362	543.57544	-766.23682	-364.87701	525.30627	-670.0329	-454.78558	940.66913	-844.83386	-473.88345	1195.2426	-602.22809	-274.77731	1028.4463	-229.85796	-321.75079	1107.2388	-231.11804	-322.48511	964.44513	179.60878	-344.00928	1062.6099	188.2491
497	2.475	-519.89655	124.11439	-734.22015	-519.66309	132.01326	-679.79999	-343.54797	544.03394	-765.65735	-364.76877	525.93317	-669.89984	-452.1337	942.38879	-844.83557	-475.29025	1195.4987	-601.74841	-279.73843	1025.7249	-228.04007	-323.70657	1105.5181	-229.56857	-322.6268	962.81091	177.13461	-346.49048	1059.3868	189.9805
498	2.48	-519.28931	124.34844	-735.48694	-519.39398	132.63916	-680.55402	-343.71759	544.34485	-765.56543	-364.31305	526.30939	-670.3526	-449.34958	944.40741	-845.07843	-476.62271	1195.2819	-601.16827	-285.737	1022.7591	-226.59229	-325.45557	1104.2334	-227.76131	-326.54819	957.59668	177.40758	-348.70013	1055.2267	190.99434
499	2.485	-518.56989	124.3959	-737.078	-519.44617	133.02287	-681.43518	-344.0152	544.56952	-765.90326	-363.64154	526.48346	-671.37543	-446.42694	946.65369	-845.41406	-478.10709	1194.6367	-600.37195	-291.2818	1020.4725	-225.52678	-326.89377	1103.2866	-225.83195	-330.43683	952.57349	177.47229	-351.05322	1051.3251	191.90598
500	2.49	-517.63794	123.91245	-738.53455	-519.28906	132.20215	-684.64722	-344.44287	544.68152	-766.70203	-363.11111	526.51117	-672.71533	-443.46869	949.05811	-846.02155	-479.78302	1193.7274	-599.44531	-295.75928	1018.4368	-224.44781	-328.01587	1102.6495	-224.04048	-335.1011	947.72968	177.31351	-353.49033	1046.4657	192.39529
501	2.495	-516.89691	124.02882	-741.09235	-519.06653	132.54411	-686.57684	-345.0325	544.70325	-767.85547	-362.67892	526.35004	-674.38043	-440.31891	951.55548	-846.87378	-481.569	1192.6414	-598.54364	-299.77426	1016.5882	-222.77419	-328.7276	1102.0967	-222.46536	-340.00793	942.62201	176.63139	-356.29605	1041.2341	193.01242
502	2.5	-516.09839	123.85026	-743.61224	-518.99243	132.14719	-689.51703	-345.24271	545.05682	-769.75043	-362.55731	526.10254	-676.24182	-437.38132	954.00793	-847.35449	-483.48083	1191.5417	-597.6582	-302.6301	1014.7431	-220.89069	-329.23511	1101.4846	-220.97319	-344.99072	936.95032	175.50322	-360.16351	1035.4341	193.48085
503	2.505	-515.18646	123.66779	-746.28827	-519.02136	133.8878	-689.50769	-346.28369	544.73505	-771.55347	-362.75159	525.77393	-678.19342	-434.46866	956.21259	-848.41766	-485.63129	1190.5266	-596.742	-304.93915	1012.8483	-219.00291	-329.65598	1100.6962	-219.86505	-350.60739	929.86719	173.79784	-365.62704	1029.1378	193.54005
504	2.51	-514.26587	123.51299	-749.04138	-518.45709	132.16006	-695.01617	-347.79169	543.92755	-773.3653	-363.30203	525.31665	-680.20251	-430.79904	959.22235	-850.28308	-487.9837	1189.6794	-595.76074	-306.63794	1010.7461	-217.68674	-330.36139	1099.8646	-219.20595	-354.92529	924.45917	172.41209	-372.10406	1022.177	192.9662
505	2.515	-513.32672	123.35033	-751.9541	-518.01508	132.3862	-697.79083	-348.71722	543.48981	-775.57648	-364.11749	524.80121	-682.18536	-427.5564	961.83368	-851.54077	-490.43924	1189.1451	-594.53882	-307.49942	1008.9763	-217.27417	-331.20801	1098.932	-219.05786	-360.80573	915.31079	169.5506	-378.97247	1015.1086	191.68617
